<svg width="50" height="50" viewBox="0 0 50 50" fill="none" xmlns="http://www.w3.org/2000/svg">
<path d="M49.3501 14.7117L49.3503 14.72L49.3508 14.7283C49.4999 17.3616 49.5 18.197 49.5 25C49.5 28.3958 49.4626 30.3038 49.4252 31.6928C49.4166 32.0125 49.408 32.3055 49.3998 32.5836C49.3725 33.5103 49.3501 34.2706 49.35 35.2941C49.3021 37.311 48.9241 39.3064 48.2312 41.2012C47.6279 42.8018 46.6789 44.2496 45.4517 45.4413L45.4459 45.4469L45.4404 45.4526C44.2551 46.6795 42.8064 47.6208 41.2037 48.2053L41.2037 48.2052L41.1982 48.2073C39.3081 48.9218 37.3099 49.3083 35.2896 49.3501L35.2807 49.3503L35.2717 49.3508C32.6384 49.4999 31.803 49.5 25 49.5C18.197 49.5 17.3616 49.4999 14.7283 49.3508L14.7193 49.3503L14.7104 49.3501C12.6901 49.3083 10.6919 48.9218 8.8018 48.2073L8.79811 48.2059C7.19721 47.6151 5.74862 46.6739 4.55826 45.4512L4.55291 45.4457L4.5474 45.4404C3.32049 44.2551 2.3792 42.8064 1.79474 41.2037L1.79477 41.2037L1.7927 41.1982C1.07823 39.3081 0.691739 37.3099 0.649893 35.2896L0.649707 35.2807L0.649201 35.2717C0.500146 32.6384 0.5 31.803 0.5 25C0.5 18.197 0.500146 17.3616 0.649201 14.7283L0.649707 14.7193L0.649893 14.7104C0.691739 12.6901 1.07823 10.6919 1.7927 8.80179L1.79273 8.8018L1.79474 8.7963C2.3792 7.19363 3.32049 5.74487 4.5474 4.5596L4.55291 4.55428L4.55826 4.54878C5.74862 3.32608 7.19721 2.3849 8.79811 1.79407L8.79812 1.79409L8.80179 1.7927C10.6919 1.07823 12.6901 0.691739 14.7104 0.649893L14.7193 0.649707L14.7283 0.649201C17.3616 0.500146 18.197 0.5 25 0.5C31.803 0.5 32.6384 0.500146 35.2717 0.649201L35.2807 0.649707L35.2896 0.649893C37.3099 0.691739 39.3081 1.07823 41.1982 1.7927L41.1982 1.79273L41.2037 1.79474C42.8064 2.3792 44.2551 3.32049 45.4404 4.5474L45.4403 4.54753L45.4502 4.55728C46.6727 5.75415 47.6216 7.20153 48.2316 8.79993C48.925 10.6962 49.3028 12.6932 49.3501 14.7117ZM44.9694 39.8222L44.9697 39.8215C45.5323 38.2807 45.8299 36.6556 45.8498 35.0154C45.9751 32.5094 46 31.568 46 25C46 18.4337 45.9751 17.4911 45.8499 14.9864C45.8416 13.312 45.5438 11.6516 44.9697 10.0786L44.9672 10.0717L44.9645 10.0649C44.5241 8.95943 43.8469 7.96385 42.9807 7.14811C42.11 6.20363 41.0284 5.47825 39.824 5.03123L39.8215 5.03034C38.2814 4.46794 36.6573 4.17036 35.0179 4.15018C32.512 4 31.563 4 25.0226 4H25C21.7082 4 19.8286 4.03756 18.4582 4.07519C18.1313 4.08416 17.8343 4.09311 17.5549 4.10152C16.6607 4.12846 15.9454 4.15 15 4.14998L14.9961 4.15001C13.3195 4.16316 11.6574 4.4606 10.0803 5.02968L10.0652 5.03513L10.0505 5.04154C8.9414 5.52421 7.95054 6.24203 7.14636 7.14519C6.24108 7.94605 5.52891 8.94173 5.06353 10.0575L5.0599 10.0662L5.0566 10.0751C4.47004 11.6456 4.16325 13.3068 4.15011 14.9832C4 17.4883 4 18.438 4 24.9774V25C4 28.2918 4.03756 30.1714 4.07519 31.5418C4.08416 31.8687 4.09311 32.1657 4.10152 32.4451C4.12846 33.3393 4.15 34.0546 4.15 35V35.0078L4.15025 35.0157C4.20309 36.7009 4.55252 38.3636 5.18247 39.9275C5.59473 41.0814 6.26653 42.1251 7.14606 42.9783C7.97088 43.8317 8.96207 44.5068 10.0583 44.9618L10.074 44.9683L10.0901 44.9737C11.6998 45.5171 13.3909 45.7798 15.0895 45.7503C17.59 45.9 18.5436 45.9 25.0777 45.9H25.1C31.668 45.9 32.6094 45.8751 35.1154 45.7499C36.7556 45.7299 38.3807 45.4323 39.9215 44.8697L39.9215 44.8697L39.9266 44.8678C41.0754 44.4341 42.1161 43.7559 42.9769 42.8803C43.8637 42.0247 44.545 40.9791 44.9694 39.8222ZM25.001 12.675L25.002 12.675C26.6233 12.6687 28.2299 12.9829 29.7293 13.5997C31.2287 14.2165 32.5914 15.1237 33.739 16.269C34.8865 17.4144 35.7963 18.7753 36.4161 20.2735C37.0358 21.7717 37.3532 23.3777 37.35 24.999V25C37.35 27.4366 36.6278 29.8186 35.2745 31.8449C33.9213 33.8712 31.9978 35.4509 29.7471 36.3845C27.4964 37.318 25.0195 37.5635 22.6293 37.0899C20.2392 36.6163 18.043 35.4448 16.3184 33.7235C14.5938 32.0023 13.418 29.8084 12.9398 27.4192C12.4615 25.03 12.7021 22.5526 13.6313 20.3001C14.5605 18.0475 16.1365 16.121 18.1601 14.7638C20.1838 13.4066 22.5643 12.6797 25.001 12.675ZM36.9611 9.57133C37.3722 9.29662 37.8555 9.15 38.35 9.15C39.013 9.15 39.6489 9.41339 40.1178 9.88223C40.5866 10.3511 40.85 10.987 40.85 11.65C40.85 12.1445 40.7034 12.6278 40.4287 13.0389C40.154 13.4501 39.7635 13.7705 39.3067 13.9597C38.8499 14.1489 38.3472 14.1984 37.8623 14.102C37.3773 14.0055 36.9319 13.7674 36.5822 13.4178C36.2326 13.0681 35.9945 12.6227 35.898 12.1377C35.8016 11.6528 35.8511 11.1501 36.0403 10.6933C36.2295 10.2365 36.5499 9.84603 36.9611 9.57133ZM20.0971 32.3377C21.5484 33.3074 23.2546 33.825 25 33.825C26.1589 33.825 27.3065 33.5967 28.3772 33.1532C29.4479 32.7097 30.4207 32.0597 31.2402 31.2402C32.0597 30.4207 32.7097 29.4479 33.1532 28.3772C33.5967 27.3065 33.825 26.1589 33.825 25C33.825 23.2546 33.3074 21.5484 32.3377 20.0971C31.368 18.6458 29.9897 17.5147 28.3772 16.8468C26.7646 16.1788 24.9902 16.0041 23.2783 16.3446C21.5664 16.6851 19.994 17.5256 18.7598 18.7598C17.5256 19.994 16.6851 21.5664 16.3446 23.2783C16.0041 24.9902 16.1788 26.7646 16.8468 28.3772C17.5147 29.9897 18.6458 31.368 20.0971 32.3377Z" fill="black" stroke="black"/>
</svg>
