<svg width="95" height="95" viewBox="0 0 95 95" fill="none" xmlns="http://www.w3.org/2000/svg">
<path d="M94.9558 41.1673C94.6589 39.3223 94.2984 37.4984 93.8318 35.6958C93.238 33.4053 92.4746 31.1361 91.5415 28.9517C89.654 24.4557 87.0668 20.2565 83.9281 16.524C80.535 12.5157 76.442 9.05887 71.9036 6.40791C67.4289 3.77815 62.5513 1.91187 57.4616 0.872697C54.8319 0.342504 52.181 0.0243889 49.4877 0.00318115C47.3882 -0.0180266 45.2887 0.0668044 43.2104 0.257674C37.8026 0.787866 32.4584 2.29361 27.5383 4.60525C23.3181 6.59878 19.3947 9.18612 15.9168 12.2824C12.4388 15.3788 9.40618 18.9841 6.96736 22.9499C4.27405 27.3611 2.25937 32.1753 1.1566 37.2227C0.265902 41.2522 -0.158241 45.4089 0.0538307 49.5444C0.244695 53.5526 0.859702 57.5609 2.06851 61.3995C2.83197 63.8384 3.74387 66.2136 4.88906 68.5253C6.01304 70.7945 7.32788 72.9789 8.79118 75.036C11.7178 79.1291 15.2806 82.7557 19.3523 85.7459C23.5089 88.8211 28.1957 91.1963 33.1158 92.7657C38.2479 94.3987 43.6981 95.1622 49.0848 94.9713C54.3441 94.8016 59.5611 93.7837 64.4811 91.8962C69.2103 90.0723 73.6426 87.4638 77.5235 84.1978C79.4746 82.5436 81.2136 80.6773 82.8465 78.705C84.5007 76.7115 85.9852 74.6119 87.2152 72.3427C88.2756 70.3916 89.1663 68.3556 89.9297 66.2985C90.3115 65.2805 90.672 64.2625 90.9689 63.2022C91.287 62.0781 91.5203 60.9117 91.7323 59.7665C92.0504 57.9638 92.1777 56.0976 92.008 54.2737C91.8596 55.0796 91.7323 55.8643 91.5415 56.649C91.3082 57.5609 91.0113 58.4516 90.672 59.3211C89.9933 61.1662 89.1451 62.9477 88.3392 64.7291C87.3 66.9983 86.0912 69.1615 84.7764 71.2611C84.0978 72.3427 83.3979 73.4031 82.6345 74.421C81.871 75.439 81.0015 76.4145 80.132 77.3689C78.393 79.2988 76.5056 81.0166 74.4061 82.5436C72.2642 84.113 69.995 85.4914 67.5986 86.6367C62.8058 88.9695 57.5676 90.3692 52.2658 90.8358C46.8368 91.3024 41.3017 90.7722 36.0848 89.224C31.1223 87.7607 26.4143 85.3854 22.2789 82.2679C18.2708 79.2352 14.7928 75.5026 12.0571 71.2823C9.19411 66.9771 7.22185 62.1206 6.14028 57.0519C5.86459 55.737 5.65252 54.3797 5.50407 53.0437C5.37683 51.8984 5.27079 50.732 5.22838 49.5656C5.16475 47.1691 5.3132 44.6878 5.67373 42.3126C6.45839 37.0955 8.15496 32.0692 10.7846 27.4884C13.1174 23.3953 16.1501 19.7051 19.7129 16.5876C23.2757 13.4489 27.3474 10.9251 31.7585 9.1437C34.3034 8.10452 36.9755 7.34105 39.69 6.83206C41.0685 6.57757 42.4469 6.36549 43.8254 6.25945C44.504 6.19583 45.1614 6.19583 45.8401 6.13221C46.1158 6.13221 46.3914 6.15342 46.6671 6.15342C51.2691 6.06859 55.8922 6.6624 60.2821 8.0409C65.0113 9.52544 69.4648 11.9219 73.3245 15.0394C77.3751 18.3054 80.747 22.3349 83.2919 26.8733C85.455 30.7331 87.0031 34.8899 87.9363 39.2162C88.1483 40.213 88.318 41.2098 88.4876 42.2065C88.6361 43.1184 89.1451 43.9668 89.9297 44.4757C91.5839 45.5785 93.8955 44.8363 94.7013 43.0548C94.977 42.4398 95.0618 41.7824 94.9558 41.1673Z" fill="#370000"/>
</svg>
