<svg width="68" height="64" viewBox="0 0 68 64" fill="none" xmlns="http://www.w3.org/2000/svg">
<path d="M39.3528 30.0584L38.9839 35.3081H22.888V34.4164C23.1612 34.3996 23.5256 34.3661 23.9811 34.3159C24.4365 34.2573 24.7326 34.1987 24.8692 34.1401C25.1607 34.0145 25.3611 33.8512 25.4704 33.6503C25.5888 33.4493 25.648 33.194 25.648 32.8842V20.074C25.648 19.7977 25.5979 19.5548 25.4977 19.3455C25.3975 19.1278 25.188 18.952 24.8692 18.818C24.6232 18.7092 24.2907 18.6129 23.8717 18.5292C23.4618 18.4455 23.1339 18.3952 22.8879 18.3785V17.4868H37.8908V21.782H36.866C36.6838 21.1457 36.2876 20.4717 35.6772 19.76C35.076 19.0399 34.5022 18.6464 33.9556 18.5794C33.6732 18.5459 33.3362 18.5208 32.9445 18.5041C32.5528 18.4873 32.1064 18.479 31.6054 18.479H28.5584V25.5622H30.7446C31.446 25.5622 31.9561 25.5036 32.275 25.3864C32.6029 25.2608 32.8898 25.0557 33.1358 24.771C33.3362 24.5282 33.5047 24.2059 33.6413 23.804C33.7871 23.3937 33.8827 23.0086 33.9283 22.6486H34.9531V29.6188H33.9283C33.8919 29.2169 33.7917 28.7941 33.6277 28.3504C33.4728 27.8982 33.3088 27.5717 33.1358 27.3708C32.8534 27.0442 32.53 26.8307 32.1656 26.7302C31.8104 26.6298 31.3367 26.5795 30.7446 26.5795H28.5584V31.9297C28.5584 32.4655 28.5994 32.8884 28.6814 33.1982C28.7634 33.5079 28.9228 33.7424 29.1596 33.9015C29.3965 34.0605 29.7198 34.1652 30.1298 34.2154C30.5397 34.2573 31.1226 34.2782 31.8787 34.2782C32.1793 34.2782 32.5756 34.2782 33.0674 34.2782C33.5593 34.2782 33.9738 34.2615 34.3108 34.228C34.657 34.1945 35.0123 34.1359 35.3766 34.0522C35.7501 33.9601 36.0143 33.8387 36.1691 33.688C36.5882 33.2861 37.0254 32.6791 37.4808 31.8669C37.9454 31.0464 38.2415 30.4435 38.369 30.0584L39.3528 30.0584Z" fill="#550000"/>
<path d="M47.8849 40.0438C47.8849 41.5592 47.5752 42.8737 46.9558 43.9873C46.3364 45.1009 45.5302 46.0135 44.5373 46.7252C43.5353 47.4369 42.4103 47.9685 41.1624 48.3202C39.9144 48.6718 38.6255 48.8476 37.2955 48.8476H29.2612V47.956C29.5254 47.956 29.867 47.935 30.286 47.8932C30.7141 47.8429 30.9965 47.7885 31.1332 47.7299C31.4064 47.621 31.6023 47.462 31.7207 47.2526C31.8482 47.035 31.912 46.7754 31.912 46.474V33.6135C31.912 33.3289 31.8573 33.0735 31.748 32.8474C31.6478 32.6214 31.4428 32.4414 31.1331 32.3074C30.8507 32.1818 30.5456 32.0897 30.2176 32.0311C29.8897 31.9725 29.6073 31.9348 29.3705 31.9181V31.0264H37.842C39.008 31.0264 40.1557 31.1938 41.2853 31.5287C42.4148 31.8553 43.3986 32.299 44.2366 32.86C45.3753 33.6052 46.268 34.5806 46.9147 35.7862C47.5615 36.9919 47.8849 38.4111 47.8849 40.0438ZM44.5373 40.0311C44.5373 38.8338 44.3642 37.7538 44.0181 36.7909C43.672 35.8197 43.1664 34.974 42.5014 34.254C41.8729 33.5674 41.0986 33.0274 40.1786 32.6339C39.2677 32.2403 38.252 32.0436 37.1316 32.0436C36.7581 32.0436 36.3345 32.052 35.8608 32.0687C35.3963 32.0771 35.0501 32.0855 34.8224 32.0938V45.7957C34.8224 46.5576 35.0638 47.0851 35.5466 47.3782C36.0293 47.6712 36.7717 47.8177 37.7738 47.8177C38.9306 47.8177 39.9417 47.6294 40.8071 47.2526C41.6725 46.8758 42.3739 46.3525 42.9113 45.6827C43.4761 44.9794 43.886 44.1672 44.1411 43.2462C44.4052 42.3169 44.5373 41.2452 44.5373 40.0311Z" fill="#550000"/>
<path d="M66 32.2831C66 28.5054 65.1723 24.7647 63.5641 21.2745C61.956 17.7844 59.5989 14.6132 56.6274 11.9419C53.6559 9.27068 50.1283 7.15174 46.2459 5.70607C42.3635 4.2604 38.2023 3.51633 34 3.51633C25.5131 3.51633 17.3737 6.5471 11.3726 11.9419C5.37142 17.3367 2 24.6537 2 32.2831C2 39.9126 5.37142 47.2295 11.3726 52.6243C17.3737 58.0191 25.5131 61.0499 34 61.0499C38.2023 61.0499 42.3635 60.3058 46.2459 58.8602C50.1283 57.4145 53.6559 55.2956 56.6274 52.6243C59.5989 49.9531 61.956 46.7819 63.5641 43.2917C65.1723 39.8016 66 36.0608 66 32.2831Z" stroke="#370000" stroke-width="3.02362"/>
<path d="M34.1199 51.5583C45.9932 51.5583 55.6185 42.9055 55.6185 32.2319C55.6185 21.5582 45.9932 12.9055 34.1199 12.9055C22.2466 12.9055 12.6213 21.5582 12.6213 32.2319C12.6213 42.9055 22.2466 51.5583 34.1199 51.5583Z" stroke="#370000" stroke-width="1.15276"/>
<path d="M12.5125 19.5302C12.7141 19.4341 12.9351 19.3809 13.1756 19.3708C13.4162 19.3607 13.6657 19.42 13.9243 19.5489C14.1882 19.6804 14.3863 19.8473 14.5188 20.0496C14.6513 20.2519 14.7303 20.4688 14.7559 20.7003C14.7817 20.9256 14.7651 21.1583 14.7063 21.3984C14.6488 21.6361 14.5553 21.8652 14.4255 22.0859L12.9689 24.5556L12.685 24.4142C12.714 24.3526 12.7537 24.2614 12.804 24.1407C12.852 24.0188 12.8784 23.9273 12.883 23.8662C12.8905 23.7717 12.873 23.6932 12.8305 23.6308C12.7854 23.5671 12.7135 23.5107 12.6148 23.4615L8.53632 21.4293C8.44568 21.3842 8.35702 21.359 8.27036 21.354C8.18514 21.3464 8.09663 21.3736 8.00486 21.4357C7.92155 21.4892 7.84247 21.556 7.76763 21.6361C7.69279 21.7161 7.63463 21.7854 7.59317 21.844L7.30928 21.7025L8.72906 19.2952C8.83891 19.109 8.96367 18.9414 9.10331 18.7922C9.24447 18.6406 9.4112 18.5129 9.60351 18.409C9.78207 18.3109 9.97877 18.2552 10.1936 18.2418C10.4085 18.2284 10.6305 18.2788 10.8598 18.393C11.0597 18.4926 11.2188 18.6147 11.3371 18.7592C11.4527 18.9024 11.531 19.0619 11.5722 19.2378C11.6123 19.4036 11.6263 19.5786 11.6143 19.7628C11.601 19.9432 11.5645 20.1279 11.5048 20.3169L11.5408 20.3348C11.6477 20.1947 11.7873 20.0486 11.9596 19.8967C12.1307 19.7411 12.3153 19.619 12.5125 19.5302ZM11.1344 19.9896C11.0733 19.8418 10.9849 19.7169 10.8691 19.6148C10.7549 19.5104 10.6044 19.4116 10.4178 19.3186C10.106 19.1632 9.8158 19.1201 9.54738 19.1893C9.27629 19.2571 9.04105 19.4601 8.84163 19.7982C8.79536 19.8766 8.73948 19.9771 8.67403 20.0999C8.60729 20.2188 8.55144 20.3193 8.50644 20.4015L10.6856 21.4874L10.9608 21.0206C11.0793 20.8197 11.1525 20.6342 11.1804 20.4642C11.2096 20.2918 11.1944 20.1336 11.1344 19.9896ZM13.2449 20.3849C12.909 20.2176 12.5717 20.1842 12.233 20.2849C11.8957 20.3831 11.6136 20.6246 11.3867 21.0092C11.2943 21.1661 11.2189 21.2997 11.1606 21.4102C11.0997 21.5193 11.0547 21.6015 11.0256 21.6567L13.0248 22.6529C13.1928 22.7366 13.3562 22.7372 13.5152 22.6547C13.6743 22.5723 13.8195 22.4196 13.951 22.1966C14.1664 21.8316 14.2151 21.4945 14.0973 21.1853C13.9796 20.8762 13.6954 20.6094 13.2449 20.3849ZM20.6532 15.4989C20.58 15.6208 20.5123 15.7254 20.4502 15.8124C20.3923 15.8998 20.3121 15.9848 20.2095 16.0675C20.0316 16.2107 19.8531 16.2878 19.674 16.2987C19.4952 16.3057 19.321 16.2477 19.1514 16.1249L19.1307 16.1414C19.1264 16.4117 19.0767 16.6556 18.9816 16.873C18.8888 17.0886 18.7227 17.2928 18.4833 17.4857C18.2302 17.6896 17.9536 17.7864 17.6535 17.7762C17.3557 17.7641 17.0968 17.6427 16.877 17.4122C16.7631 17.2927 16.6794 17.1711 16.6259 17.0474C16.5725 16.9237 16.5463 16.7947 16.5473 16.6605C16.5443 16.5517 16.5666 16.4355 16.6141 16.312C16.6597 16.1864 16.7092 16.0757 16.7628 15.9801C16.8314 15.8618 16.9759 15.6286 17.1963 15.2805C17.4191 14.9306 17.5592 14.6843 17.6167 14.5416L17.3199 14.2303C17.2939 14.2031 17.2371 14.1562 17.1495 14.0897C17.0641 14.0213 16.9679 13.9691 16.861 13.933C16.7414 13.8922 16.6125 13.8775 16.4741 13.8888C16.3361 13.8963 16.1907 13.9616 16.0379 14.0846C15.933 14.1692 15.851 14.2649 15.7918 14.3719C15.7328 14.475 15.7021 14.5591 15.6996 14.6241C15.7396 14.6661 15.8089 14.7196 15.9073 14.7848C16.008 14.8482 16.0913 14.9144 16.1573 14.9836C16.2273 15.057 16.2547 15.1534 16.2397 15.273C16.227 15.3907 16.1568 15.501 16.029 15.6039C15.915 15.6957 15.7957 15.727 15.671 15.6977C15.5466 15.6645 15.4404 15.6018 15.3525 15.5096C15.2605 15.4132 15.209 15.2916 15.1981 15.1448C15.1894 14.9961 15.2114 14.8395 15.2641 14.6748C15.3107 14.5334 15.388 14.384 15.4961 14.2267C15.6021 14.0672 15.7246 13.9314 15.8637 13.8194C16.0552 13.6651 16.2337 13.5435 16.399 13.4548C16.5646 13.3621 16.7436 13.3087 16.9359 13.2947C17.1261 13.2786 17.3148 13.3137 17.502 13.4001C17.6895 13.4825 17.8832 13.6285 18.083 13.8381C18.3688 14.1378 18.6192 14.4068 18.8342 14.6449C19.0473 14.881 19.2847 15.1363 19.5465 15.4109C19.6244 15.4926 19.7012 15.5456 19.7768 15.57C19.8548 15.5925 19.9416 15.5948 20.0374 15.5768C20.0896 15.5682 20.1532 15.5355 20.2281 15.4787C20.3054 15.4202 20.3828 15.3597 20.4603 15.2973L20.6532 15.4989ZM17.8766 14.8006C17.7327 15.0091 17.6118 15.1973 17.5138 15.3652C17.4158 15.5331 17.34 15.7052 17.2863 15.8816C17.2402 16.0447 17.231 16.2021 17.2588 16.3539C17.2847 16.5036 17.3615 16.6455 17.4894 16.7797C17.6553 16.9536 17.8262 17.042 18.0022 17.0447C18.1805 17.0456 18.346 16.9846 18.4988 16.8615C18.6607 16.731 18.7692 16.5806 18.8245 16.4102C18.8777 16.2376 18.8995 16.0681 18.89 15.9016L17.8766 14.8006ZM24.6704 9.65939C24.7337 9.78904 24.7557 9.919 24.7362 10.0492C24.7156 10.177 24.6333 10.2705 24.4894 10.3299C24.3346 10.3938 24.1976 10.4061 24.0786 10.3666C23.9624 10.326 23.8825 10.2612 23.839 10.1722C23.8116 10.1163 23.7909 10.0637 23.7769 10.0146C23.7656 9.96426 23.7529 9.9145 23.7388 9.8653C23.6088 9.91897 23.4803 10.0301 23.3533 10.1987C23.2263 10.3672 23.1454 10.5656 23.1106 10.7938L24.1805 12.9827C24.224 13.0717 24.2774 13.1367 24.3407 13.1778C24.4068 13.2177 24.4867 13.2351 24.5806 13.23C24.6622 13.2268 24.76 13.2093 24.8741 13.1775C24.991 13.1445 25.0907 13.114 25.1734 13.086L25.2964 13.3377L23.1391 14.2285L23.0161 13.9769C23.0772 13.9455 23.1397 13.9136 23.2036 13.8811C23.2703 13.8475 23.3247 13.8127 23.367 13.7769C23.4333 13.722 23.4707 13.6592 23.4793 13.5884C23.4895 13.514 23.4722 13.431 23.4274 13.3395L22.2923 11.0171C22.2538 10.9383 22.1952 10.8694 22.1164 10.8102C22.0403 10.7499 21.9552 10.7118 21.861 10.6957C21.7936 10.6869 21.7208 10.691 21.6426 10.708C21.5632 10.7224 21.4808 10.7442 21.3953 10.7734L21.2742 10.5256L22.594 9.87973L22.6781 9.9091L22.9372 10.4392L22.9587 10.4308C23.0296 10.1541 23.1439 9.91891 23.3019 9.7253C23.4599 9.53174 23.626 9.39897 23.8003 9.327C23.9745 9.25504 24.1411 9.24891 24.2999 9.3086C24.4615 9.36716 24.5846 9.48399 24.6704 9.65939ZM33.1742 9.65392C33.2542 10.2683 33.1106 10.8075 32.7435 11.2717C32.3764 11.736 31.9144 11.9987 31.3574 12.06C31.1135 12.0868 30.8682 12.0787 30.6213 12.0357C30.3775 11.9923 30.1441 11.9239 29.9213 11.8306L29.6492 12.3447L29.3616 12.3174C29.3501 12.1109 29.3285 11.8635 29.2971 11.575C29.2656 11.2866 29.2324 11.0081 29.1975 10.7397L28.67 6.6884C28.6577 6.5943 28.6214 6.50287 28.561 6.41409C28.5036 6.32497 28.4361 6.26363 28.3584 6.23007C28.2965 6.20036 28.1968 6.18467 28.0591 6.18299C27.9241 6.17819 27.8156 6.17749 27.7336 6.1809L27.699 5.91525L29.3214 5.63996L29.3928 5.69529L29.744 8.39339L29.7767 8.39827C29.9396 8.1951 30.1249 8.03577 30.3328 7.92027C30.5437 7.80445 30.7561 7.73478 30.9698 7.71127C31.5178 7.651 32.0014 7.7999 32.4205 8.15799C32.8397 8.51608 33.0909 9.01467 33.1742 9.65392ZM32.2341 9.78677C32.2075 9.58201 32.1562 9.37573 32.0802 9.16793C32.0043 8.96015 31.9049 8.78303 31.782 8.63655C31.6588 8.4873 31.5079 8.37198 31.3293 8.29058C31.1507 8.20916 30.9456 8.1812 30.7137 8.2067C30.503 8.22988 30.3229 8.28899 30.1734 8.38403C30.0265 8.47594 29.8983 8.59389 29.7889 8.73788L30.0991 11.1205C30.1258 11.1849 30.1705 11.2586 30.2332 11.3415C30.2989 11.4241 30.3821 11.5006 30.4829 11.5709C30.5833 11.6384 30.6939 11.6908 30.8149 11.7281C30.9354 11.7626 31.0785 11.7707 31.2441 11.7524C31.6114 11.712 31.8867 11.5161 32.07 11.1648C32.2532 10.8134 32.3079 10.3541 32.2341 9.78677ZM40.5989 11.6172C40.3454 11.9065 40.0435 12.119 39.6931 12.2545C39.3427 12.3899 38.9667 12.4214 38.565 12.3488C38.211 12.2848 37.9124 12.1712 37.6692 12.0079C37.429 11.8452 37.2436 11.6498 37.1132 11.4217C36.9828 11.1936 36.9025 10.9405 36.8724 10.6624C36.8452 10.3848 36.863 10.0997 36.9256 9.80712C36.9817 9.54458 37.0813 9.29558 37.2244 9.06013C37.3711 8.82248 37.5538 8.61835 37.7726 8.44771C37.9838 8.2842 38.2269 8.16623 38.5019 8.09382C38.7806 8.01921 39.0761 8.01013 39.3885 8.0666C39.7098 8.12468 39.9751 8.2209 40.1843 8.35527C40.3935 8.48967 40.5522 8.65044 40.6605 8.83759C40.7646 9.01547 40.8271 9.21424 40.8481 9.4339C40.8721 9.6541 40.858 9.8859 40.806 10.1293L40.7481 10.4L37.8339 9.87328C37.7772 10.1386 37.7525 10.384 37.7598 10.6097C37.77 10.836 37.8171 11.0419 37.9011 11.2275C37.9832 11.4071 38.108 11.5603 38.2756 11.6872C38.4437 11.8113 38.6572 11.8968 38.916 11.9436C39.1808 11.9914 39.4204 11.9765 39.6348 11.8988C39.8528 11.8189 40.0826 11.6474 40.3243 11.3843L40.5989 11.6172ZM39.9426 9.89658C39.9753 9.74342 39.9956 9.57665 40.0033 9.39629C40.014 9.21643 40.0007 9.06206 39.9634 8.93318C39.9218 8.79501 39.8501 8.67552 39.748 8.57471C39.646 8.47389 39.5013 8.40656 39.3138 8.37267C39.0014 8.31621 38.7153 8.38947 38.4556 8.59247C38.1994 8.79327 38.0167 9.10536 37.9076 9.52872L39.9426 9.89658ZM44.896 14.4728C44.3217 14.1952 43.9724 13.8028 43.848 13.2956C43.7237 12.7884 43.8301 12.24 44.1674 11.6504C44.3142 11.3939 44.494 11.1754 44.7069 10.9948C44.9239 10.8132 45.1678 10.6713 45.4386 10.5692C45.6971 10.4706 45.9762 10.4259 46.2757 10.4353C46.5767 10.4422 46.868 10.5138 47.1498 10.65C47.539 10.838 47.8063 11.0774 47.9517 11.3681C48.0986 11.6564 48.0873 11.9485 47.918 12.2445C47.8474 12.3679 47.7524 12.4621 47.6329 12.5271C47.5148 12.5897 47.382 12.5853 47.2345 12.514C47.0761 12.4375 46.9738 12.3408 46.9276 12.224C46.884 12.1085 46.8883 12.0051 46.9406 11.9138C47.0041 11.8028 47.0852 11.6972 47.1837 11.5968C47.2836 11.4939 47.3518 11.4167 47.3882 11.365C47.3836 11.2652 47.34 11.1796 47.2576 11.1082C47.1792 11.0357 47.085 10.9728 46.9749 10.9196C46.8461 10.8574 46.7078 10.8236 46.5601 10.8184C46.4165 10.8119 46.2508 10.8499 46.0632 10.9324C45.8933 11.0078 45.7175 11.1354 45.5359 11.3152C45.3541 11.495 45.18 11.7305 45.0136 12.0216C44.7511 12.4804 44.6466 12.9085 44.7002 13.306C44.7578 13.7023 44.9664 13.9873 45.3261 14.1611C45.5864 14.2869 45.8369 14.334 46.0777 14.3024C46.3212 14.2721 46.5844 14.1773 46.8673 14.0181L47.036 14.298C46.6924 14.5035 46.3269 14.6213 45.9397 14.6514C45.5525 14.6815 45.2046 14.622 44.896 14.4728ZM52.2004 19.7176L51.1057 18.825L51.1032 18.7392L51.5087 18.3729L51.4896 18.3551C51.3845 18.3562 51.2687 18.3553 51.1423 18.3523C51.018 18.3474 50.8895 18.3286 50.7569 18.296C50.6028 18.2593 50.466 18.2129 50.3465 18.1568C50.227 18.1006 50.0854 17.996 49.9217 17.843C49.6433 17.5826 49.5227 17.3008 49.5598 16.9976C49.6013 16.6944 49.7983 16.3836 50.1508 16.0652L51.6819 14.6821C51.7598 14.6118 51.8098 14.5393 51.8319 14.4645C51.8582 14.3898 51.8632 14.309 51.847 14.2222C51.8347 14.163 51.8053 14.1017 51.7588 14.0383C51.7143 13.9728 51.6624 13.9084 51.603 13.8449L51.8139 13.6544L52.9406 14.565L52.9431 14.6508L50.721 16.6581C50.4896 16.8671 50.3665 17.072 50.3517 17.2729C50.337 17.4738 50.4008 17.6409 50.5432 17.7741C50.6601 17.8834 50.7826 17.9642 50.9107 18.0165C51.0389 18.0687 51.1587 18.1012 51.27 18.1139C51.3728 18.1266 51.4703 18.1303 51.5626 18.1251C51.6591 18.12 51.7407 18.1088 51.8073 18.0916L53.6207 16.4536C53.6921 16.3891 53.7399 16.3186 53.7643 16.2419C53.7908 16.1633 53.797 16.0816 53.7828 15.9967C53.7705 15.9375 53.7282 15.8702 53.656 15.7947C53.5881 15.7193 53.5096 15.6359 53.4204 15.5445L53.6313 15.354L54.8505 16.3511L54.8529 16.4369L52.3129 18.7313C52.2394 18.7978 52.1915 18.8683 52.1693 18.943C52.1471 19.0177 52.1442 19.0965 52.1606 19.1794C52.1751 19.2367 52.2046 19.2941 52.249 19.3516C52.2957 19.4072 52.3498 19.4657 52.4114 19.5273L52.2004 19.7176ZM56.4763 24.8782C56.0723 24.8679 55.7056 24.7755 55.3762 24.6011C55.0468 24.4267 54.792 24.1707 54.6118 23.8328C54.4529 23.5351 54.3706 23.2478 54.3648 22.971C54.3603 22.6968 54.4174 22.4429 54.5361 22.2095C54.6547 21.976 54.8253 21.764 55.048 21.5737C55.272 21.3859 55.5296 21.2263 55.8209 21.095C56.0823 20.9772 56.3582 20.8994 56.6488 20.8616C56.9433 20.8251 57.2307 20.8353 57.511 20.8921C57.7804 20.9476 58.0296 21.0541 58.2588 21.2116C58.4921 21.3703 58.6788 21.581 58.819 21.8438C58.9631 22.114 59.0403 22.3664 59.0505 22.6008C59.0607 22.8352 59.0175 23.0486 58.9209 23.2411C58.8299 23.4249 58.6956 23.591 58.5181 23.7393C58.3418 23.8901 58.1326 24.0201 57.8903 24.1293L57.6208 24.2508L56.3133 21.7996C56.0492 21.9187 55.8216 22.0492 55.6306 22.1911C55.4409 22.3356 55.2911 22.4947 55.1811 22.6684C55.0752 22.8371 55.018 23.0212 55.0095 23.2206C55.0038 23.4187 55.059 23.6266 55.1751 23.8443C55.2939 24.0671 55.4518 24.2333 55.6489 24.3432C55.85 24.4543 56.1376 24.5187 56.5117 24.5363L56.4763 24.8782ZM57.5693 23.3567C57.7218 23.288 57.8785 23.2019 58.0394 23.0983C58.2016 22.9973 58.3273 22.8941 58.4163 22.7888C58.5108 22.6748 58.5709 22.55 58.5965 22.4143C58.622 22.2786 58.5927 22.1319 58.5087 21.9743C58.3685 21.7116 58.1319 21.5466 57.7989 21.4794C57.4699 21.4135 57.0891 21.4687 56.6564 21.6451L57.5693 23.3567Z" fill="#800000" stroke="#370000" stroke-width="1.2181"/>
<path d="M9.95353 34.7486L8.02438 34.1889L6.43732 35.3603L6.41082 33.4686L4.73192 32.4177L6.64468 31.8083L7.19413 29.9874L8.40279 31.5024L10.4213 31.428L9.25549 32.9737L9.95353 34.7486Z" fill="#800000" stroke="#370000" stroke-width="0.470647"/>
<path d="M59.7933 35.7085L58.8295 34.0737L56.8027 33.902L58.2141 32.525L57.8017 30.6968L59.6378 31.4807L61.4097 30.5225L61.1331 32.3839L62.6406 33.6199L60.6335 33.9865L59.7933 35.7085Z" fill="#800000" stroke="#370000" stroke-width="0.470647"/>
<path d="M55.1024 45.3805C54.9159 45.4788 54.7093 45.5371 54.4823 45.5555C54.2553 45.5738 54.0168 45.5268 53.7667 45.4145C53.5115 45.2998 53.3169 45.1492 53.1829 44.9628C53.0489 44.7763 52.9648 44.5741 52.9306 44.3562C52.8965 44.1441 52.902 43.9235 52.9473 43.6943C52.9913 43.4674 53.0699 43.2473 53.183 43.034L54.4534 40.6455L54.7279 40.7689C54.7032 40.8282 54.6697 40.9158 54.6273 41.0318C54.5871 41.1489 54.5662 41.2363 54.5644 41.2942C54.5615 41.3839 54.5814 41.4575 54.6243 41.5149C54.6697 41.5735 54.7401 41.6242 54.8356 41.6671L58.7798 43.4395C58.8675 43.4789 58.9524 43.4994 59.0345 43.501C59.1154 43.5051 59.1979 43.4761 59.282 43.4141C59.3585 43.3604 59.4304 43.2943 59.4977 43.2159C59.565 43.1375 59.6169 43.0699 59.6536 43.013L59.9282 43.1363L58.6899 45.4644C58.5941 45.6444 58.4834 45.8075 58.3578 45.9537C58.2309 46.1022 58.0788 46.229 57.9014 46.3343C57.7368 46.4336 57.5533 46.4935 57.3507 46.514C57.1481 46.5345 56.936 46.495 56.7143 46.3953C56.5209 46.3085 56.3652 46.1989 56.2472 46.0665C56.1317 45.9354 56.0507 45.7874 56.0041 45.6226C55.959 45.4673 55.9382 45.3024 55.9416 45.1277C55.9464 44.9567 55.9729 44.7807 56.0212 44.5998L55.9863 44.5842C55.8914 44.7206 55.7657 44.8638 55.6094 45.0137C55.4543 45.1672 55.285 45.2894 55.1024 45.3805ZM56.3855 44.8958C56.4497 45.0333 56.5387 45.1481 56.6526 45.2404C56.7651 45.335 56.9116 45.4229 57.0921 45.504C57.3937 45.6395 57.6699 45.6697 57.9207 45.5945C58.1741 45.5204 58.3878 45.3199 58.5617 44.9929C58.602 44.9171 58.6505 44.82 58.7071 44.7016C58.7651 44.5867 58.8135 44.4896 58.8525 44.4102L56.7451 43.4632L56.5051 43.9146C56.4017 44.1089 56.3405 44.2869 56.3216 44.4487C56.3013 44.6128 56.3226 44.7618 56.3855 44.8958ZM54.3729 44.5991C54.6977 44.7451 55.0181 44.7643 55.334 44.6567C55.6487 44.5515 55.905 44.3129 56.1029 43.9409C56.1835 43.7892 56.249 43.6601 56.2993 43.5536C56.3522 43.4481 56.3912 43.3688 56.4163 43.3155L54.4829 42.4466C54.3205 42.3737 54.1659 42.3791 54.0191 42.4628C53.8723 42.5466 53.7416 42.6963 53.6269 42.9119C53.4391 43.265 53.4075 43.5855 53.5323 43.8735C53.657 44.1615 53.9372 44.4033 54.3729 44.5991ZM47.4786 49.5617C47.5433 49.444 47.6034 49.343 47.6589 49.2587C47.7103 49.1743 47.783 49.0914 47.877 49.01C48.04 48.8689 48.2059 48.7904 48.3749 48.7745C48.5438 48.7624 48.7106 48.8117 48.8755 48.9226L48.8944 48.9063C48.8885 48.6506 48.9265 48.4184 49.0084 48.2098C49.0879 48.0029 49.2374 47.8046 49.457 47.6147C49.6888 47.414 49.9468 47.3137 50.231 47.314C50.5131 47.3162 50.7624 47.4228 50.9788 47.634C51.091 47.7434 51.1747 47.8558 51.2298 47.9711C51.2849 48.0864 51.3145 48.2076 51.3185 48.3346C51.3254 48.4374 51.3086 48.548 51.2682 48.6663C51.2295 48.7864 51.1863 48.8924 51.1387 48.9844C51.0781 49.0985 50.9501 49.3235 50.7545 49.6596C50.5567 49.9975 50.4333 50.2348 50.3843 50.3716L50.6765 50.6566C50.7021 50.6816 50.7575 50.7242 50.8429 50.7844C50.9262 50.8464 51.0191 50.8927 51.1215 50.9235C51.2361 50.9584 51.3586 50.9683 51.489 50.9532C51.6193 50.9418 51.7544 50.8755 51.8944 50.7544C51.9904 50.6711 52.0645 50.578 52.1166 50.475C52.1686 50.3757 52.1946 50.2952 52.1946 50.2337C52.1552 50.1953 52.0878 50.1468 51.9922 50.0882C51.8946 50.0314 51.8133 49.9713 51.7484 49.908C51.6796 49.8408 51.65 49.7504 51.6597 49.6369C51.6673 49.5251 51.7297 49.4186 51.8466 49.3173C51.9511 49.2269 52.0628 49.1936 52.1818 49.2173C52.3006 49.2449 52.4034 49.3008 52.4899 49.3853C52.5804 49.4736 52.6336 49.587 52.6494 49.7255C52.6632 49.8658 52.6482 50.0147 52.6045 50.1721C52.5654 50.3072 52.4978 50.4508 52.4017 50.6031C52.3074 50.7573 52.1966 50.8895 52.0691 50.9998C51.8937 51.1518 51.7294 51.2723 51.5763 51.3614C51.4231 51.4542 51.2558 51.5103 51.0746 51.5296C50.8952 51.5508 50.7154 51.5235 50.5352 51.4476C50.3548 51.3755 50.1663 51.2435 49.9695 51.0515C49.6881 50.777 49.4413 50.5305 49.2292 50.312C49.019 50.0954 48.785 49.8614 48.5272 49.6099C48.4505 49.535 48.3759 49.4873 48.3035 49.4666C48.229 49.4478 48.1467 49.4483 48.0568 49.4683C48.0078 49.4781 47.9489 49.511 47.8801 49.567C47.8092 49.6248 47.7383 49.6844 47.6672 49.7459L47.4786 49.5617ZM50.1304 50.1352C50.2588 49.9335 50.3662 49.7517 50.4526 49.5899C50.5391 49.4281 50.6044 49.2629 50.6484 49.0943C50.6859 48.9386 50.6887 48.7894 50.6568 48.6467C50.6268 48.5059 50.5488 48.3741 50.4229 48.2513C50.2596 48.0919 50.0947 48.0137 49.9281 48.0166C49.7595 48.0213 49.6052 48.0843 49.4653 48.2055C49.3169 48.3339 49.2198 48.4796 49.174 48.6425C49.1302 48.8074 49.1158 48.9684 49.131 49.1255L50.1304 50.1352ZM43.758 55.2617C43.6941 55.1408 43.6693 55.0184 43.6836 54.8947C43.6991 54.7733 43.774 54.6827 43.9083 54.6227C44.0528 54.5582 44.1819 54.543 44.2958 54.5772C44.407 54.6126 44.4846 54.6718 44.5284 54.7548C44.556 54.807 44.5772 54.8562 44.592 54.9023C44.6043 54.9496 44.6178 54.9964 44.6327 55.0425C44.754 54.9883 44.8721 54.8798 44.987 54.7171C45.102 54.5543 45.1723 54.3645 45.198 54.1477L44.1181 52.1052C44.0742 52.0222 44.0216 51.9621 43.9605 51.9249C43.8968 51.8888 43.8206 51.8745 43.732 51.8818C43.6549 51.8869 43.5629 51.906 43.456 51.9391C43.3465 51.9734 43.2531 52.0049 43.1757 52.0335L43.0515 51.7987L45.0646 50.8995L45.1888 51.1343C45.1319 51.1656 45.0738 51.1974 45.0144 51.2298C44.9523 51.2634 44.9018 51.2976 44.8629 51.3326C44.8019 51.3863 44.7684 51.4467 44.7625 51.5139C44.7552 51.5846 44.7741 51.6626 44.8192 51.748L45.965 53.915C46.0039 53.9885 46.0615 54.0523 46.1379 54.1061C46.2116 54.1612 46.2933 54.195 46.383 54.2077C46.4471 54.2143 46.5159 54.2086 46.5892 54.1904C46.6638 54.1747 46.7411 54.1519 46.821 54.122L46.9433 54.3533L45.7149 54.9988L45.6345 54.9732L45.373 54.4786L45.353 54.4872C45.2946 54.7508 45.1937 54.9762 45.0503 55.1635C44.9068 55.3507 44.7537 55.4807 44.5912 55.5533C44.4286 55.6259 44.2712 55.6361 44.1192 55.5838C43.9645 55.5327 43.8445 55.4254 43.758 55.2617ZM35.5753 55.498C35.4841 54.9185 35.6063 54.4052 35.9418 53.9582C36.2774 53.5112 36.7079 53.2528 37.2333 53.183C37.4634 53.1524 37.6957 53.1548 37.9303 53.1903C38.1621 53.2261 38.3846 53.2858 38.5978 53.3694L38.8423 52.8772L39.115 52.8969C39.1312 53.092 39.1578 53.3256 39.1949 53.5979C39.2319 53.8701 39.2703 54.1328 39.3102 54.386L39.9114 58.2076C39.9253 58.2964 39.962 58.3821 40.0214 58.4648C40.0779 58.5479 40.1434 58.6045 40.2177 58.6346C40.2771 58.6613 40.3719 58.6741 40.5021 58.6728C40.6299 58.6744 40.7326 58.6728 40.8101 58.6678L40.8495 58.9184L39.3216 59.2134L39.2527 59.1626L38.8523 56.6175L38.8212 56.6135C38.6722 56.8092 38.5008 56.9639 38.3071 57.0776C38.1105 57.1917 37.9113 57.2621 37.7097 57.2889C37.1928 57.3576 36.7316 57.2271 36.326 56.8972C35.9204 56.5674 35.6701 56.101 35.5753 55.498ZM36.4613 55.3523C36.4917 55.5454 36.5454 55.7395 36.6225 55.9345C36.6995 56.1294 36.798 56.2949 36.918 56.4308C37.0384 56.5694 37.184 56.6753 37.355 56.7485C37.526 56.8217 37.7209 56.8438 37.9395 56.8147C38.1383 56.7883 38.3072 56.7286 38.4463 56.6355C38.5829 56.5454 38.7012 56.4311 38.8011 56.2925L38.4475 54.045C38.4206 53.9846 38.3765 53.9158 38.3151 53.8387C38.2508 53.762 38.1701 53.6914 38.073 53.627C37.9764 53.5653 37.8704 53.5181 37.755 53.4854C37.6401 53.4554 37.5046 53.4508 37.3484 53.4715C37.0019 53.5175 36.7464 53.7087 36.5818 54.0451C36.4173 54.3814 36.3771 54.8171 36.4613 55.3523ZM28.373 53.7689C28.6072 53.491 28.8888 53.285 29.2176 53.151C29.5465 53.0171 29.9017 52.9811 30.2831 53.0432C30.6194 53.0979 30.9042 53.2005 31.1375 53.351C31.3679 53.501 31.5471 53.6828 31.6749 53.8965C31.8028 54.1101 31.8837 54.3483 31.9176 54.6109C31.9486 54.8731 31.9374 55.1432 31.8839 55.4211C31.8359 55.6704 31.7463 55.9076 31.6151 56.1326C31.4809 56.3599 31.312 56.556 31.1083 56.7211C30.9117 56.8793 30.684 56.9949 30.4251 57.068C30.163 57.1431 29.8835 57.1566 29.5868 57.1083C29.2817 57.0586 29.0288 56.972 28.8282 56.8483C28.6277 56.7245 28.4743 56.575 28.3682 56.3997C28.2663 56.2331 28.2032 56.0461 28.1791 55.8386C28.1521 55.6306 28.1609 55.4111 28.2054 55.1799L28.255 54.9228L31.0227 55.3733C31.0712 55.1213 31.0898 54.8887 31.0784 54.6752C31.0643 54.4613 31.0158 54.2672 30.9327 54.093C30.8515 53.9244 30.7304 53.7815 30.5694 53.6643C30.4079 53.5496 30.2043 53.4722 29.9584 53.4322C29.707 53.3913 29.4805 53.4094 29.2792 53.4864C29.0745 53.5656 28.8604 53.7316 28.6368 53.9845L28.373 53.7689ZM29.0275 55.3861C28.9995 55.5316 28.9836 55.6897 28.9798 55.8605C28.9732 56.0309 28.9888 56.1767 29.0267 56.2981C29.0686 56.4281 29.1389 56.54 29.2374 56.6337C29.3359 56.7274 29.4742 56.7887 29.6522 56.8177C29.9489 56.866 30.2182 56.7919 30.46 56.5956C30.6985 56.4014 30.8652 56.1031 30.9603 55.7007L29.0275 55.3861ZM24.1396 51.0844C24.6868 51.3405 25.0227 51.7078 25.1473 52.1864C25.2718 52.6649 25.1785 53.1851 24.8673 53.7468C24.732 53.9913 24.5648 54.2001 24.3657 54.3734C24.1629 54.5478 23.934 54.6848 23.6791 54.7846C23.4358 54.8808 23.1723 54.9262 22.8888 54.9208C22.6039 54.9177 22.3272 54.8534 22.0587 54.7277C21.6879 54.5542 21.4318 54.3307 21.2902 54.0573C21.1473 53.7862 21.154 53.5096 21.3102 53.2276C21.3754 53.1101 21.464 53.0199 21.5761 52.9569C21.6869 52.8963 21.8127 52.8989 21.9534 52.9647C22.1042 53.0353 22.2023 53.1256 22.2477 53.2356C22.2905 53.3444 22.2878 53.4423 22.2396 53.5293C22.181 53.6351 22.1058 53.736 22.0139 53.8321C21.9207 53.9306 21.8573 54.0045 21.8235 54.0538C21.8292 54.1482 21.8715 54.2287 21.9506 54.2953C22.0258 54.363 22.1158 54.4214 22.2206 54.4705C22.3434 54.5279 22.4747 54.5583 22.6145 54.5616C22.7505 54.566 22.9068 54.5282 23.0832 54.448C23.2429 54.3747 23.4075 54.252 23.577 54.0797C23.7465 53.9074 23.9081 53.6826 24.0617 53.4053C24.3038 52.9681 24.3968 52.5618 24.3407 52.1863C24.2808 51.8119 24.0795 51.5446 23.7369 51.3842C23.4888 51.2682 23.2511 51.2265 23.0237 51.2592C22.7937 51.2907 22.546 51.3834 22.2804 51.5373L22.1169 51.2743C22.4393 51.076 22.7835 50.9603 23.1495 50.9274C23.5155 50.8944 23.8455 50.9468 24.1396 51.0844ZM17.0772 46.1125L18.1196 46.9506L18.1224 47.0317L17.7413 47.3808L17.7595 47.3976C17.859 47.3959 17.9686 47.3961 18.0883 47.3982C18.2059 47.4021 18.3276 47.419 18.4534 47.4491C18.5994 47.4829 18.7292 47.526 18.8428 47.5783C18.9563 47.6307 19.091 47.7289 19.247 47.8727C19.5123 48.1174 19.6285 48.3834 19.5955 48.6705C19.5584 48.9577 19.3742 49.253 19.043 49.5565L17.604 50.8747C17.5308 50.9417 17.484 51.0106 17.4635 51.0815C17.4391 51.1523 17.4349 51.2287 17.451 51.3108C17.4631 51.3668 17.4914 51.4247 17.5359 51.4844C17.5784 51.546 17.6281 51.6067 17.6848 51.6665L17.4866 51.8481L16.4138 50.9931L16.411 50.912L18.4994 48.999C18.7169 48.7998 18.8319 48.6051 18.8444 48.4149C18.857 48.2247 18.7954 48.067 18.6597 47.9418C18.5483 47.839 18.4317 47.7633 18.3101 47.7146C18.1884 47.666 18.0748 47.636 17.9693 47.6246C17.872 47.6133 17.7797 47.6103 17.6924 47.6158C17.6011 47.6212 17.524 47.6323 17.461 47.649L15.7567 49.2101C15.6897 49.2716 15.6449 49.3386 15.6224 49.4113C15.5985 49.4861 15.5933 49.5635 15.6068 49.6435C15.6189 49.6995 15.6594 49.763 15.7282 49.8339C15.7931 49.9049 15.868 49.9834 15.953 50.0693L15.7549 50.2508L14.594 49.3146L14.5912 49.2335L16.9784 47.0468C17.0475 46.9835 17.0922 46.9164 17.1127 46.8456C17.1328 46.7747 17.1349 46.7001 17.1191 46.6218C17.105 46.5677 17.0767 46.5136 17.0342 46.4594C16.9896 46.4071 16.938 46.352 16.8792 46.2941L17.0772 46.1125ZM12.948 41.1384C13.3303 41.1481 13.6774 41.2354 13.9892 41.4004C14.301 41.5653 14.5422 41.8076 14.7129 42.1272C14.8633 42.409 14.9413 42.6808 14.9469 42.9427C14.9512 43.2023 14.8972 43.4425 14.7851 43.6635C14.6729 43.8845 14.5115 44.0851 14.3009 44.2653C14.089 44.4432 13.8452 44.5942 13.5695 44.7186C13.3222 44.8301 13.0611 44.9038 12.7862 44.9397C12.5074 44.9743 12.2354 44.9648 11.9702 44.9111C11.7153 44.8586 11.4793 44.7579 11.2624 44.6089C11.0416 44.4588 10.8648 44.2594 10.7321 44.0108C10.5955 43.7551 10.5224 43.5163 10.5127 43.2945C10.5029 43.0726 10.5436 42.8706 10.6349 42.6884C10.7211 42.5144 10.8481 42.3572 11.0161 42.2168C11.1828 42.0741 11.3808 41.951 11.6101 41.8476L11.8651 41.7326L13.1033 44.0518C13.3531 43.9391 13.5685 43.8156 13.7492 43.6812C13.9287 43.5444 14.0705 43.3938 14.1745 43.2294C14.2746 43.0696 14.3286 42.8954 14.3366 42.7068C14.342 42.5192 14.2897 42.3225 14.1797 42.1165C14.0672 41.9058 13.9177 41.7484 13.7312 41.6445C13.5408 41.5394 13.2686 41.4786 12.9145 41.462L12.948 41.1384ZM11.9141 42.5787C11.7698 42.6437 11.6216 42.7253 11.4694 42.8233C11.3159 42.919 11.197 43.0167 11.1128 43.1163C11.0234 43.2243 10.9666 43.3424 10.9424 43.4708C10.9182 43.5992 10.9459 43.738 11.0256 43.8872C11.1584 44.1358 11.3823 44.2918 11.6975 44.3553C12.0088 44.4176 12.3692 44.3653 12.7787 44.1982L11.9141 42.5787Z" fill="#800000" stroke="#370000" stroke-width="1.21701"/>
</svg>
