<svg width="50" height="51" viewBox="0 0 50 51" fill="none" xmlns="http://www.w3.org/2000/svg">
<path d="M36.6718 30.204C36.1695 29.9528 32.9042 28.4458 32.4018 28.1946C31.8995 27.9434 31.3971 27.9434 30.8948 28.4458C30.3924 28.9481 29.3877 30.4552 28.8853 30.9576C28.6342 31.4599 28.1318 31.4599 27.6295 31.2087C25.8712 30.4552 24.113 29.4505 22.6059 28.1946C21.35 26.9387 20.0942 25.4317 19.0894 23.9246C18.8383 23.4222 19.0894 22.9199 19.3406 22.6687C19.5918 22.4175 19.843 21.9152 20.3453 21.664C20.5965 21.4128 20.8477 20.9105 20.8477 20.6593C21.0989 20.4081 21.0989 19.9058 20.8477 19.6546C20.5965 19.4034 19.3406 16.3893 18.8383 15.1334C18.5871 13.3752 18.0847 13.3752 17.5824 13.3752H16.3265C15.8241 13.3752 15.0706 13.8775 14.8194 14.1287C13.3124 15.6358 12.5588 17.394 12.5588 19.4034C12.81 21.664 13.5636 23.9246 15.0706 25.934C17.8336 29.9528 21.35 33.2181 25.62 35.2276C26.8759 35.7299 27.8806 36.2323 29.1365 36.4834C30.3924 36.9858 31.6483 36.9858 33.1554 36.7346C34.9136 36.4834 36.4207 35.2276 37.4254 33.7205C37.9277 32.7158 37.9277 31.7111 37.6765 30.7064L36.6718 30.204ZM42.9513 7.34693C33.1554 -2.44897 17.3312 -2.44897 7.53531 7.34693C-0.502354 15.3846 -2.00942 27.6923 3.51648 37.4882L0 50.2982L13.3124 46.7817C17.08 48.7911 21.0989 49.7958 25.1177 49.7958C38.9324 49.7958 49.9842 38.744 49.9842 24.9293C50.2354 18.3987 47.4724 12.1193 42.9513 7.34693ZM36.1695 42.5117C32.9042 44.5211 29.1365 45.777 25.1177 45.777C21.35 45.777 17.8336 44.7723 14.5683 43.014L13.8147 42.5117L6.02825 44.5211L8.03766 36.9858L7.53531 36.2323C1.50706 26.1852 4.52118 13.6263 14.3171 7.34693C24.113 1.0675 36.6718 4.3328 42.7001 13.8775C48.7283 23.6734 45.9654 36.4834 36.1695 42.5117Z" fill="black"/>
</svg>
